<?xml version="1.0" standalone="no"?>
<!DOCTYPE svg PUBLIC "-//W3C//DTD SVG 20010904//EN"
 "http://www.w3.org/TR/2001/REC-SVG-20010904/DTD/svg10.dtd">
<svg version="1.0" xmlns="http://www.w3.org/2000/svg"
 width="1080.000000pt" height="864.000000pt" viewBox="0 0 1080.000000 864.000000"
 preserveAspectRatio="xMidYMid meet">

<g transform="translate(0.000000,864.000000) scale(0.100000,-0.100000)"
fill="#000000" stroke="none">
<path d="M3389 7516 c-20 -7 -54 -27 -75 -45 -22 -18 -467 -461 -990 -984
-693 -693 -954 -960 -959 -981 -5 -24 -1 -34 20 -55 l25 -26 648 -3 c463 -2
658 0 687 8 34 10 119 91 540 510 275 274 510 503 522 509 16 8 622 11 2202
11 l2180 0 27 -23 c22 -20 26 -28 20 -53 -9 -34 -41 -67 -2024 -2048 -1341
-1340 -1462 -1464 -1462 -1493 0 -66 -28 -64 725 -63 l677 0 36 29 c21 17
1066 1059 2325 2318 l2287 2288 0 42 c0 80 376 73 -3717 73 -2969 -1 -3665 -3
-3694 -14z"/>
<path d="M4666 5631 c-33 -22 -4587 -4572 -4617 -4613 -24 -33 -24 -70 -1 -91
17 -16 290 -17 3727 -17 l3709 0 993 993 c948 948 993 994 993 1028 0 73 43
69 -716 69 -576 -1 -682 -3 -699 -15 -11 -8 -238 -233 -505 -499 -334 -334
-497 -490 -522 -501 -33 -13 -278 -15 -2198 -15 -2386 0 -2230 -4 -2230 61 0
40 -73 -35 1916 1954 815 814 1502 1504 1528 1534 51 61 56 81 26 111 -20 20
-33 20 -697 20 -652 0 -679 -1 -707 -19z"/>
</g>
</svg>
